<?xml version="1.0" encoding="utf-8"?>
<!-- Generator: Adobe Illustrator 26.2.1, SVG Export Plug-In . SVG Version: 6.00 Build 0)  -->
<svg version="1.1" xmlns="http://www.w3.org/2000/svg" xmlns:xlink="http://www.w3.org/1999/xlink" x="0px" y="0px"
	 viewBox="0 0 257.21 160" style="enable-background:new 0 0 257.21 160;" xml:space="preserve">
<g id="Layer_1">
	<g>
		<polygon points="64.26,58.88 64.26,86.34 92.3,86.34 92.3,30.85 		"/>
		<g>
			<path d="M159.9,2.93c-0.08,0-0.15,0-0.23,0v0h-39.45L92.3,30.85h11.75h0.02v0c7,0.04,10.65,4.83,10.65,12.33v43.15h28.03l0-55.49
				h11.64c0.02,0,0.04,0,0.05,0c0.02,0,0.04,0,0.06,0h0.02v0c7,0.03,10.66,4.83,10.66,12.33v43.15h28.03V35.93
				C193.22,15.74,182.17,2.93,159.9,2.93"/>
		</g>
		<rect x="64.26" y="2.92" width="28.04" height="27.92"/>
		<g>
			<path d="M25,123.04c1.86-2.42,4.39-3.94,7.82-3.94c3.99,0,6.86,1.8,8.5,4.61c1.91-2.81,5.01-4.61,9.12-4.61
				c6.81,0,10.46,5.06,10.46,11.14v16.71h-4.61v-16.43c0-4.33-2.19-7.31-6.53-7.31c-4.22,0-6.81,3.32-6.81,7.6v16.15h-4.56v-16.43
				c0-4.33-2.2-7.31-6.53-7.31c-4.22,0-6.81,3.32-6.81,7.6v16.15H20.5v-27.17H25V123.04z"/>
			<path d="M65.55,133.45c0-8.1,6.13-14.4,14.23-14.4c8.05,0,14.07,6.25,14.07,14.35c0,8.1-6.13,14.4-14.23,14.4
				C71.57,147.79,65.55,141.55,65.55,133.45 M89.18,133.39c0-5.74-4.11-10.35-9.51-10.35c-5.34,0-9.45,4.5-9.45,10.41
				c0,5.8,4.11,10.35,9.51,10.35C85.07,143.8,89.18,139.3,89.18,133.39"/>
			<path d="M98.8,107.57h4.56v16.43c2.36-2.98,5.97-4.84,9.96-4.84c7.26,0,13.45,5.46,13.45,14.12c0,8.83-6.47,14.29-13.67,14.29
				c-3.83,0-7.43-1.74-9.79-4.67v4.05h-4.5V107.57z M112.69,143.57c5.34,0,9.4-3.83,9.4-10.18c0-6.36-4-10.18-9.23-10.18
				c-5.29,0-9.68,4.33-9.68,10.3C103.19,139.35,107.46,143.57,112.69,143.57"/>
		</g>
		<path d="M136.7,115.67h-5.06v-5.01h5.06V115.67z M136.47,146.95h-4.61v-27.17h4.61V146.95z"/>
		<rect x="143.18" y="107.57" width="4.61" height="39.38"/>
		<g>
			<path d="M176.49,139.24l2.76,2.53c-3.04,3.94-7.09,6.02-12.32,6.02c-8.1,0-13.95-5.91-13.95-14.35c0-8.21,6.08-14.35,13.84-14.35
				c7.76,0,13.39,5.51,13.39,14.01c0,0.73-0.11,1.63-0.17,1.91H157.7c0.62,5.51,4.72,8.89,9.62,8.89
				C170.75,143.91,173.85,142.5,176.49,139.24 M157.7,131.48h17.89c-0.68-5.29-4.11-8.49-8.72-8.49
				C162.37,122.98,158.49,126.07,157.7,131.48"/>
		</g>
		<polygon points="186.22,119.77 194.99,141.38 203.77,119.77 208.55,119.77 192.74,157.08 188.02,157.08 192.69,146.72 
			181.21,119.77 		"/>
		<g>
			<path d="M233,139.24l2.76,2.53c-3.04,3.94-7.09,6.02-12.32,6.02c-8.1,0-13.95-5.91-13.95-14.35c0-8.21,6.08-14.35,13.84-14.35
				c7.76,0,13.39,5.51,13.39,14.01c0,0.73-0.11,1.63-0.17,1.91h-22.33c0.62,5.51,4.72,8.89,9.62,8.89
				C227.26,143.91,230.35,142.5,233,139.24 M214.21,131.48h17.89c-0.68-5.29-4.11-8.49-8.72-8.49
				C218.87,122.98,214.99,126.07,214.21,131.48"/>
		</g>
		<path d="M253.92,125.51h-0.96v-4.61l-1.64,3.09h-0.83l-1.66-3.13v4.65h-0.96v-5.56h1.47l1.58,2.94l1.53-2.94h1.47V125.51z
			 M242.13,119.95h5.03v0.92h-2.05v4.65h-0.96v-4.65h-2.02V119.95z"/>
	</g>
</g>
<g id="DESIGN">
</g>
</svg>
