<svg xmlns="http://www.w3.org/2000/svg" viewBox="0 0 70 70"><defs><linearGradient id="a" x1="55.5" x2="15.7" y1="14.5" y2="54.3" gradientUnits="userSpaceOnUse"><stop offset="0" stop-color="#e9eaf2"/><stop offset=".1" stop-color="#b9bff6"/><stop offset=".2" stop-color="#919afa"/><stop offset=".3" stop-color="#737ffc"/><stop offset=".4" stop-color="#616efe"/><stop offset=".5" stop-color="#5b69ff"/><stop offset="1" stop-color="#1e2eb8"/></linearGradient></defs><circle cx="35.2" cy="34.8" r="34.8" fill="#1e2eb6"/><circle cx="35.2" cy="34.8" r="29" fill="url(#a)"/><rect width="20" height="4.9" x="21.4" y="41.8" fill="#fff" rx="2.4" ry="2.4" transform="rotate(-62.6 31.316 44.27)"/><rect width="20" height="4.9" x="29.3" y="41.8" fill="#fff" rx="2.4" ry="2.4" transform="rotate(-117.4 39.348 44.217)"/><path fill="#fff" d="M49.5 25.8c-.5-1-1.7-1.4-2.8-1.1l-7.4 2.2c-1.2.4-2.5.6-3.8.6H35c-1.3 0-2.6-.2-3.8-.6l-7.4-2.2c-1.1-.3-2.2 0-2.8 1.1s0 2.9 1.4 3.3l9.3 2.8v10h7.2v-10l9.3-2.8c1.3-.4 2-2 1.4-3.3Z"/><circle cx="35.3" cy="19.9" r="3.8" fill="#fff"/></svg>