<svg xmlns="http://www.w3.org/2000/svg" xmlns:xlink="http://www.w3.org/1999/xlink" viewBox="0 0 70 70"><defs><linearGradient id="a" x1="1.5" x2="59.3" y1="38.7" y2="38.7" gradientUnits="userSpaceOnUse"><stop offset="0" stop-color="#1e2eb8"/><stop offset=".5" stop-color="#5b69ff"/><stop offset="1" stop-color="#e9eaf2"/></linearGradient><linearGradient xlink:href="#a" id="b" y1="22.5" y2="22.5"/><linearGradient xlink:href="#a" id="c" y1="6.2" y2="6.2"/></defs><path fill="url(#a)" d="M56.6 41.3H4.2c-1.5 0-2.6-1.2-2.6-2.6s1.2-2.6 2.6-2.6h52.5c1.5 0 2.6 1.2 2.6 2.6s-1.2 2.6-2.6 2.6Z"/><path fill="url(#b)" d="M56.6 25.1H4.2c-1.5 0-2.6-1.2-2.6-2.6s1.2-2.6 2.6-2.6h52.5c1.5 0 2.6 1.2 2.6 2.6s-1.2 2.6-2.6 2.6Z"/><path fill="url(#c)" d="M56.6 8.9H4.2c-1.5 0-2.6-1.2-2.6-2.6s1.2-2.6 2.6-2.6h52.5c1.5 0 2.6 1.2 2.6 2.6s-1.2 2.6-2.6 2.6Z"/><circle cx="43.1" cy="6.2" r="5.3" fill="#98a1ff"/><circle cx="17.1" cy="22.5" r="5.3" fill="#1e2eb8"/><circle cx="31.9" cy="38.7" r="5.3" fill="#5b69ff"/><path fill="#1f2eb8" d="m67.5 55.9-4.2-8.1c-.9-1.8-3-2.7-5-2.1l2.2 4c0 .2 0 .4-.1.4h-.2c-.1 0-.2 0-.3-.2l-2.3-4.1c-.9-1.2-2.5-1.7-3.9-1l-1.3.6 2.4 4.2c0 .2 0 .4-.1.4h-.2c-.1 0-.2 0-.3-.2l-2.4-4.2s-1.1-1.5-3.3-.4l-.5.3 2.3 4c0 .2 0 .4-.1.4H50c-.1 0-.2 0-.3-.2l-2.3-4.1-3.3-5.7c-.8-1.3-2.5-1.8-3.8-1s-1.8 2.4-1 3.8l8.1 14.4-3.2-1.5c-1.2-.6-2.7-.2-3.5 1-.9 1.4-.4 3.3 1 4l11.4 5.9c3.2 1.6 7 1.6 10.1-.2l1.1-.6c3.6-2 4.9-6.4 3-10.1Z"/></svg>