<svg xmlns="http://www.w3.org/2000/svg" viewBox="0 0 70 70"><defs><linearGradient id="a" x1="5.7" x2="39.3" y1="60.8" y2="54.6" gradientUnits="userSpaceOnUse"><stop offset="0" stop-color="#5b69ff"/><stop offset="1" stop-color="#e9eaf2"/></linearGradient></defs><path fill="#5b69ff" d="M11.6 43.7S14 27.3 26.9 27.3c0 0 17-1 17 29.3 0 0-5.9 5.2-14.6 6-20 1.8-18.1-6.8-17.7-18.9"/><path fill="#5b69ff" d="M31.3 17.9s-1.9 1.5-2.7.2c-.9-1.3-1.7-1.4-1.7-1.4s-.9 0-1.7 1.4c-.9 1.3-2.7-.2-2.7-.2-3.7-2.2-2.7 3.1-2.7 3.1.3 4.8 7.2 6.3 7.2 6.3s6.9-1.6 7.2-6.3c0 0 1-5.3-2.7-3.1Z"/><path fill="#969fff" d="M26.9 28.3h-.1l-7.3-1c-.5 0-.9-.6-.8-1.1 0-.5.6-.9 1.1-.8l7.2 1 7.2-1c.5 0 1 .3 1.1.8 0 .5-.3 1-.8 1.1l-7.3 1h-.1Z"/><path fill="#969fff" d="M28.3 43.8c-.5 0-1-.4-1-.9l-.6-15.6c0-.5.3-.9.8-1s.9.1 1.1.6l4.3 9.9c.2.5 0 1.1-.5 1.3s-1.1 0-1.3-.5l-2.3-5.2.4 10.5c0 .5-.4 1-.9 1Z"/><path fill="#5b69ff" d="M11.6 14.8c-.3 0-.5 0-.7-.3L6.3 9.9c-.4-.4-.4-1 0-1.4s1-.4 1.4 0l4.6 4.6c.4.4.4 1 0 1.4-.2.2-.4.3-.7.3m6.2-3.9q-.6 0-.9-.6l-2.9-6c-.2-.5 0-1.1.5-1.3s1.1 0 1.3.5l2.9 6c.2.5 0 1.1-.5 1.3h-.4Zm8.1-2.3c-.5 0-1-.4-1-1V1c0-.6.4-1 1-1s1 .4 1 1v6.6c0 .5-.4 1-1 1m8.3 1.6h-.4c-.5-.2-.7-.8-.5-1.3l2.9-6c.2-.5.8-.7 1.3-.5s.7.8.5 1.3l-2.9 6q-.3.6-.9.6Zm6.5 4.6c-.3 0-.5 0-.7-.3-.4-.4-.4-1 0-1.4l4.7-4.6c.4-.4 1-.4 1.4 0s.4 1 0 1.4l-4.7 4.6c-.2.2-.4.3-.7.3"/><rect width="6.4" height="20.4" y="45.6" fill="#5b69ff" rx="3.2" ry="3.2"/><path fill="url(#a)" d="M6.1 64 20 69.4c2.2.8 4.6.8 6.7 0l13.7-5.8c1.8-.8 2.5-3 1.5-4.7-.8-1.3-2.5-1.8-3.9-1.2l-9.8 4.1c-1.2.5-2.5.5-3.7.1l-9.1-3c-.4-.1-.6-.6-.5-1s.6-.7 1-.6l8.6 2.8c1.2.4 2.5.3 3.7-.1l2-.8c1.7-.7 1.7-3 .1-3.8l-14.4-7c-1.9-.9-4-1.2-6-.8l-3.8.7v15.8Z"/><path fill="#1f2eb8" d="M51.6 34.4c.5 0 1-.4 1-1V14.3c-.1-1.3.9-2.4 2.2-2.4s2.4 1.1 2.4 2.4v19.4c0 .5.4 1 1 1 .5 0 1-.4 1-1v-14c0-1.3 1-2.3 2.3-2.3s2.3 1 2.3 2.3v16.6c0 .5.4.9.9.9s.9-.4.9-.9v-9.2c0-1.2 1-2.2 2.2-2.2s2.2 1 2.2 2.2v16.5c0 8-6.5 14.5-14.5 14.5h-4c-4.8 0-9-3-10.6-7.5l-5.7-15.9c-.3-.9.2-1.9 1.1-2.2.7-.2 1.4 0 1.9.6l5.8 7.7c.5.7 1.6.3 1.6-.5V18.6c0-1.3 1.1-2.3 2.3-2.3 1.3 0 2.3 1 2.3 2.3l.3 15.1c0 .5.4.9 1 .9Z"/></svg>