<svg xmlns="http://www.w3.org/2000/svg" xmlns:xlink="http://www.w3.org/1999/xlink" viewBox="0 0 70 70"><defs><linearGradient id="a" x1="27.9" x2="20.2" y1="8.2" y2="46.6" gradientUnits="userSpaceOnUse"><stop offset="0" stop-color="#fff"/><stop offset=".3" stop-color="#fcfcfe"/><stop offset=".5" stop-color="#f4f4fd"/><stop offset=".7" stop-color="#e5e7fb"/><stop offset=".8" stop-color="#d1d5f9"/><stop offset="1" stop-color="#b7bdf5"/><stop offset="1" stop-color="#b0b6f5"/></linearGradient><linearGradient xlink:href="#a" id="b" x1="25.9" x2="18.2" y1="7.8" y2="46.2"/><linearGradient xlink:href="#a" id="c" x1="27.2" x2="19.5" y1="8.1" y2="46.5"/><linearGradient xlink:href="#a" id="d" x1="28.2" x2="20.6" y1="8.3" y2="46.7"/><linearGradient xlink:href="#a" id="e" x1="28.2" x2="20.6" y1="8.3" y2="46.7"/><linearGradient id="f" x1="91.4" x2="91.3" y1="301" y2="280.3" gradientTransform="rotate(45 375.288 128.95)" gradientUnits="userSpaceOnUse"><stop offset="0" stop-color="#1e2eb8"/><stop offset=".3" stop-color="#5b69ff"/><stop offset="1" stop-color="#e9eaf2"/></linearGradient><linearGradient id="g" x1="79.4" x2="105.8" y1="308.2" y2="307.8" gradientTransform="rotate(45 375.288 128.95)" gradientUnits="userSpaceOnUse"><stop offset="0" stop-color="#1e2eb8"/><stop offset=".5" stop-color="#5b69ff"/><stop offset="1" stop-color="#e9eaf2"/></linearGradient></defs><path fill="#1f2eb8" d="M47.4 64.6H4.9c-2.7 0-4.9-2-4.9-4.5V0h47.4c2.7 0 4.9 2 4.9 4.5v55.6c0 2.5-2.2 4.5-4.9 4.5"/><path fill="url(#a)" d="M34.4 37.7H9.1c-.8 0-1.5.7-1.5 1.5s.7 1.5 1.5 1.5h25.3c.8 0 1.5-.7 1.5-1.5s-.7-1.5-1.5-1.5"/><path fill="url(#b)" d="M27.4 44.5H9.1c-.8 0-1.5.7-1.5 1.5s.7 1.5 1.5 1.5h18.3c.8 0 1.5-.7 1.5-1.5s-.7-1.5-1.5-1.5"/><path fill="url(#c)" d="M27.4 51.4H9.1c-.8 0-1.5.7-1.5 1.5s.7 1.5 1.5 1.5h18.3c.8 0 1.5-.7 1.5-1.5s-.7-1.5-1.5-1.5"/><path fill="url(#d)" d="m23.7 23.6 2.4-2.4 2.5 2.4 2.5-2.4-2.5-2.5 2.5-2.5-2.5-2.4-2.5 2.5-2.4-2.5-2.5 2.4 2.5 2.5-2.5 2.5z"/><path fill="url(#e)" d="M26.1 30.3c6.4 0 11.5-5.2 11.5-11.5S32.4 7.3 26.1 7.3s-11.5 5.2-11.5 11.5 5.2 11.5 11.5 11.5m0-19.9c4.6 0 8.3 3.7 8.3 8.3S30.7 27 26.1 27s-8.3-3.7-8.3-8.3 3.7-8.3 8.3-8.3"/><path fill="url(#f)" d="M61.8 47.1c3.9-3.9 11.5-7.8 6.6-12.6-4.9-4.9-8.7 2.7-12.6 6.6S42.5 47 42.5 47l13.4 13.4s2-9.4 5.9-13.3"/><path fill="url(#g)" d="m53.2 69.5 5-5c2.5-2.5.2-9-5.3-14.5S41 42.2 38.4 44.7l-5 5"/><ellipse cx="43.3" cy="59.6" fill="#969fff" rx="4" ry="14" transform="rotate(-45 43.312 59.66)"/><ellipse cx="43.2" cy="59.8" fill="none" stroke="#1e2eb6" stroke-miterlimit="10" stroke-width=".8" rx="3.8" ry="14" transform="rotate(-45 43.141 59.73)"/></svg>