<svg xmlns="http://www.w3.org/2000/svg" xmlns:xlink="http://www.w3.org/1999/xlink" viewBox="0 0 70 70"><defs><linearGradient id="b" x1="10.2" x2="59.8" y1="57.8" y2="57.8" gradientUnits="userSpaceOnUse"><stop offset="0" stop-color="#1e2eb8"/><stop offset=".5" stop-color="#5b69ff"/><stop offset="1" stop-color="#e9eaf2"/></linearGradient><linearGradient id="a" x1="17.8" x2="25.5" y1="12.3" y2="12.3" gradientUnits="userSpaceOnUse"><stop offset="0" stop-color="#5b69ff"/><stop offset="1" stop-color="#e9eaf2"/></linearGradient><linearGradient xlink:href="#a" id="c" x1="21.7" x2="21.7" y1="32.4" y2="13.5"/></defs><path fill="url(#b)" d="M59.8 57.2c-2.6 0-4.7 2.1-4.7 4.7s2.1 4.7 4.7 4.7H18.5c-4.6 0-8.3-3.7-8.3-8.3V49l49.6 8.3Z"/><path fill="#1f2eb8" d="M10.2 3.5h35.3c7.9 0 14.3 6.4 14.3 14.3v39.5H10.2z"/><path fill="url(#a)" d="M25.5 3.5h-7.7v17.7l7.7-7.7z"/><path fill="url(#c)" d="M17.8 21.2v11.2l2.6-2.1c.8-.6 1.8-.6 2.6 0l2.6 2.1V13.5l-7.7 7.7Z"/></svg>