<svg xmlns="http://www.w3.org/2000/svg" xmlns:xlink="http://www.w3.org/1999/xlink" viewBox="0 0 70 70"><defs><linearGradient id="a" x1="69.9" x2="-51" y1="35" y2="35" gradientUnits="userSpaceOnUse"><stop offset="0" stop-color="#1e2eb8"/><stop offset=".5" stop-color="#5b69ff"/><stop offset="1" stop-color="#e9eaf2"/></linearGradient><linearGradient id="b" x1="22.9" x2="39.3" y1="35" y2="35" gradientUnits="userSpaceOnUse"><stop offset="0" stop-color="#5b69ff"/><stop offset="1" stop-color="#e9eaf2"/></linearGradient><linearGradient xlink:href="#a" id="c" x1="19.2" x2="48.9" y1="39.5" y2="39.5"/><linearGradient xlink:href="#b" id="d" x1="51.3" x2="55.7" y1="26" y2="26"/></defs><rect width="9" height="6.7" x="4.8" y="15.8" fill="#1f2eb8" rx="2.4" ry="2.4"/><path fill="url(#a)" d="M65.9 19.3H54.7c-.6 0-1.2-.3-1.6-.9l-5-7.5C47.3 9.7 46 9 44.6 9H25.3c-1.4 0-2.7.7-3.5 1.9l-5 7.5c-.4.5-1 .9-1.6.9H4.1c-2.3 0-4.1 1.8-4.1 4.1v31.2C0 58.1 2.9 61 6.4 61h59.5c2.3 0 4.1-1.8 4.1-4.1V23.4c0-2.3-1.8-4.1-4.1-4.1"/><circle cx="35.2" cy="39.1" r="16.2" fill="#1f2eb8"/><path fill="url(#b)" d="M35.2 26.8c-6.8 0-12.3 5.5-12.3 12.3s.3 2.8.7 4.1l15.7-15.7c-1.3-.5-2.7-.7-4.1-.7"/><path fill="url(#c)" d="M39.3 27.6 23.6 43.3c.6 1.7 1.6 3.3 2.9 4.5 2.2 2.2 5.3 3.6 8.7 3.6 6.8 0 12.3-5.5 12.3-12.3s-1.4-6.5-3.6-8.7c-1.3-1.3-2.8-2.2-4.5-2.9Z"/><circle cx="53.5" cy="26" r="2.2" fill="url(#d)"/></svg>