<svg xmlns="http://www.w3.org/2000/svg" xmlns:xlink="http://www.w3.org/1999/xlink" viewBox="0 0 70 70"><defs><linearGradient id="a" x1="31.8" x2="38.2" y1="49.2" y2="49.2" gradientUnits="userSpaceOnUse"><stop offset="0" stop-color="#1e2eb8"/><stop offset=".5" stop-color="#5b69ff"/><stop offset="1" stop-color="#e9eaf2"/></linearGradient><linearGradient xlink:href="#a" id="b" x1=".1" x2="23.9" y1="40.8" y2="40.8"/><linearGradient xlink:href="#a" id="c" x1="48.8" x2="68.8" y1="30.9" y2="30.9"/><linearGradient xlink:href="#a" id="d" x1="29.7" x2="30.3" y1="15.8" y2="37.4"/><linearGradient xlink:href="#a" id="e" x1="41.5" x2="41.7" y1="40.9" y2="19.5"/></defs><rect width="66.2" height="5.5" x="1.9" y="46.5" fill="#1f2eb8" rx="2.8" ry="2.8" transform="rotate(-11.9 35.119 49.246)"/><path fill="#1f2eb8" d="m35.4 49.2-9.8 18h18.8z"/><circle cx="35" cy="49.2" r="6.7" fill="#1f2eb8"/><circle cx="35" cy="49.2" r="4.6" fill="#fff"/><circle cx="35" cy="49.2" r="3.2" fill="url(#a)"/><circle cx="12" cy="40.8" r="11.9" fill="url(#b)"/><circle cx="58.8" cy="30.9" r="10" fill="url(#c)"/><path fill="url(#d)" d="M32.4 30.3V17.7c0-1.3-1-2.3-2.3-2.3s-2.3 1-2.3 2.3v12.6h-3.3l5.7 7 5.8-6.9h-3.5Z"/><path fill="url(#e)" d="M39.4 25.8v12.6c0 1.3 1 2.3 2.3 2.3s2.3-1 2.3-2.3V25.8h3.3l-5.7-7-5.8 6.9h3.5Z"/><path fill="#fff" d="m5.7 46.4 4.6-11.3h3.3l4.7 11.3h-3.2l-.8-2H9.5l-.8 2H5.6Zm7.7-4.5L12 38.4l-1.4 3.5zm45.9-15.7c2.6 0 3.6 1.1 3.6 2.5s-.3 1.7-1.5 2.1c1.3.4 1.7 1.2 1.7 2.3s-1.1 2.6-3.9 2.6h-4.8v-9.5zM57 28.3v1.5h2.2c.9 0 1.2-.4 1.2-.8s-.3-.7-1.1-.7zm0 3.6v1.6h2.3c1.1 0 1.4-.3 1.4-.8s-.3-.8-1.3-.8z"/></svg>