<svg xmlns="http://www.w3.org/2000/svg" xmlns:xlink="http://www.w3.org/1999/xlink" viewBox="0 0 70 70"><defs><linearGradient id="a" x1="59.6" x2="20" y1="6.7" y2="67" gradientUnits="userSpaceOnUse"><stop offset="0" stop-color="#e9eaf2"/><stop offset=".5" stop-color="#5b69ff"/><stop offset="1" stop-color="#1e2eb8"/></linearGradient><linearGradient id="b" x1="21.3" x2="10.2" y1="1.5" y2="18.4" gradientUnits="userSpaceOnUse"><stop offset="0" stop-color="#1e2eb8"/><stop offset=".5" stop-color="#5b69ff"/><stop offset="1" stop-color="#e9eaf2"/></linearGradient><linearGradient xlink:href="#a" id="c" x1="16.4" x2="44.7" y1="44.6" y2="44.6"/><linearGradient xlink:href="#a" id="d" x1="16.4" x2="44.7" y1="51.5" y2="51.5"/><linearGradient xlink:href="#a" id="e" x1="16.4" x2="44.7" y1="58.3" y2="58.3"/><linearGradient xlink:href="#a" id="f" x1="16.4" x2="44.7" y1="23.7" y2="23.7"/><linearGradient xlink:href="#a" id="g" x1="16.4" x2="44.7" y1="30.5" y2="30.5"/><linearGradient xlink:href="#a" id="h" x1="16.4" x2="44.7" y1="37.4" y2="37.4"/></defs><rect width="52.3" height="65.2" x="13.3" y="4.8" fill="url(#a)" rx="5.2" ry="5.2"/><path fill="#1f2eb8" d="M51.8 70H9.3c-2.7 0-4.9-2.2-4.9-4.9v-49L20.4 0h31.4c2.7 0 4.9 2.2 4.9 4.9v60.2c0 2.7-2.2 4.9-4.9 4.9"/><path fill="url(#b)" d="M17.4 16h-13l16-16v13c0 1.7-1.3 3-3 3"/><rect width="28.3" height="3" x="16.4" y="43.1" fill="url(#c)" rx="1.5" ry="1.5"/><rect width="28.3" height="3" x="16.4" y="50" fill="url(#d)" rx="1.5" ry="1.5"/><rect width="28.3" height="3" x="16.4" y="56.8" fill="url(#e)" rx="1.5" ry="1.5"/><rect width="28.3" height="3" x="16.4" y="22.2" fill="url(#f)" rx="1.5" ry="1.5"/><rect width="28.3" height="3" x="16.4" y="29" fill="url(#g)" rx="1.5" ry="1.5"/><rect width="28.3" height="3" x="16.4" y="35.9" fill="url(#h)" rx="1.5" ry="1.5"/></svg>