<svg xmlns="http://www.w3.org/2000/svg" xmlns:xlink="http://www.w3.org/1999/xlink" viewBox="0 0 70 70"><defs><linearGradient id="a" x1="2.9" x2="67.1" y1="35" y2="35" gradientUnits="userSpaceOnUse"><stop offset="0" stop-color="#1e2eb8"/><stop offset=".5" stop-color="#5b69ff"/><stop offset="1" stop-color="#e9eaf2"/></linearGradient><linearGradient id="b" x1="12.4" x2="57.6" y1="35" y2="35" gradientUnits="userSpaceOnUse"><stop offset="0" stop-color="#5b69ff"/><stop offset="1" stop-color="#e9eaf2"/></linearGradient><linearGradient xlink:href="#a" id="c" x1="65.2" x2="37.1" y1="57.8" y2="34.4"/><linearGradient xlink:href="#a" id="d" x1="59" x2="30.9" y1="65.3" y2="41.8"/><linearGradient xlink:href="#a" id="e" x1="62.8" x2="34.6" y1="60.8" y2="37.3"/><linearGradient xlink:href="#b" id="f" x1="6.9" x2="13" y1="60.6" y2="60.6"/></defs><rect width="64.2" height="64.2" x="2.9" y="2.9" fill="url(#a)" rx="9" ry="9"/><path fill="#1f2eb8" stroke="url(#b)" stroke-miterlimit="10" stroke-width="1.1" d="M22.3 13h-5.7c-2 0-3.6 1.6-3.6 3.6v36.8c0 2 1.6 3.6 3.6 3.6h36.8c2 0 3.6-1.6 3.6-3.6V16.6c0-2-1.6-3.6-3.6-3.6z"/><path fill="url(#c)" d="M40.7 27.4h-7.2l-5.1 5.1h2.1c1.3 0 1.9.9 1.9 2.2v7.9h5.1V32.5h2.1c1.3 0 1.9.9 1.9 2.2v7.9h5.1v-9.2c0-3.7-2-6-6.1-6"/><path fill="url(#d)" d="M23.2 37.6v5h5.2V32.5z"/><path fill="url(#e)" d="M23.2 27.4h5.1v5.1h-5.1z"/><circle cx="10" cy="60.6" r="3" fill="url(#f)"/></svg>