<svg xmlns="http://www.w3.org/2000/svg" xmlns:xlink="http://www.w3.org/1999/xlink" viewBox="0 0 70 70"><defs><linearGradient id="b" x1="53.8" x2="16.9" y1="5.4" y2="61.7" gradientUnits="userSpaceOnUse"><stop offset="0" stop-color="#e9eaf2"/><stop offset=".5" stop-color="#5b69ff"/><stop offset="1" stop-color="#1e2eb8"/></linearGradient><linearGradient id="a" x1="15.5" x2="15.5" y1="36.4" y2="26.5" gradientUnits="userSpaceOnUse"><stop offset="0" stop-color="#5b69ff"/><stop offset="1" stop-color="#e9eaf2"/></linearGradient><linearGradient xlink:href="#a" id="c" x1="22.6" x2="22.6" y1="36.4" y2="22.9"/><linearGradient xlink:href="#a" id="d" x1="36.8" x2="36.8" y1="36.4" y2="16.9"/><linearGradient xlink:href="#a" id="e" x1="29.7" x2="29.7" y1="36.4" y2="29.1"/><linearGradient id="f" x1="16.8" x2="5.8" y1="1.5" y2="18.4" gradientUnits="userSpaceOnUse"><stop offset="0" stop-color="#1e2eb8"/><stop offset=".5" stop-color="#5b69ff"/><stop offset="1" stop-color="#e9eaf2"/></linearGradient><linearGradient xlink:href="#b" id="g" x1="12" x2="40.3" y1="44.6" y2="44.6"/><linearGradient xlink:href="#b" id="h" x1="12" x2="40.3" y1="51.5" y2="51.5"/><linearGradient xlink:href="#b" id="i" x1="12" x2="40.3" y1="58.3" y2="58.3"/><linearGradient xlink:href="#a" id="j" x1="36.5" x2="70.5" y1="52" y2="52"/><linearGradient id="k" x1="59" x2="50.3" y1="44.1" y2="56.8" gradientUnits="userSpaceOnUse"><stop offset="0" stop-color="#e9eaf2"/><stop offset="1" stop-color="#5b69ff"/></linearGradient></defs><rect width="52.3" height="58.5" x="8.9" y="4.8" fill="url(#b)" rx="4.9" ry="4.9"/><path fill="#1f2eb8" d="M47.4 70H4.9C2.2 70 0 67.8 0 65.1v-49L16 0h31.4c2.7 0 4.9 2.2 4.9 4.9v60.2c0 2.7-2.2 4.9-4.9 4.9"/><path fill="url(#a)" d="M12 24h7.1v12.3H12z"/><path fill="url(#c)" d="M19.1 20.2h7.1v16.2h-7.1z"/><path fill="url(#d)" d="M33.2 16h7.1v20.3h-7.1z"/><path fill="url(#e)" d="M26.1 28.3h7.1v8.1h-7.1z"/><path fill="url(#f)" d="M13 16H0L16 0v13c0 1.7-1.3 3-3 3"/><rect width="28.3" height="3" x="12" y="43.1" fill="url(#g)" rx="1.5" ry="1.5"/><rect width="28.3" height="3" x="12" y="50" fill="url(#h)" rx="1.5" ry="1.5"/><rect width="28.3" height="3" x="12" y="56.8" fill="url(#i)" rx="1.5" ry="1.5"/><circle cx="53.5" cy="52" r="16.5" fill="#1f2eb8" stroke="url(#j)" stroke-miterlimit="10" stroke-width="1.1"/><path fill="url(#k)" d="M52.2 58.5c-1.6-.2-3.1-.7-4.5-1.6l1.4-2.7c1.5.8 3.4 1.4 4.7 1.4s2.2-.5 2.2-1.1-.3-.8-2.4-1.1c-4.3-.7-5.4-1.8-5.4-4s1.4-3.7 4.1-4.1v-2.1h3v2.1c1.2.2 2.4.7 3.6 1.4l-1.4 2.7c-1.1-.7-2.6-1.3-3.8-1.3s-2.1.4-2.1 1 .3.8 2.3 1.1c4.2.7 5.4 1.7 5.4 4.1s-1.4 3.7-4.1 4.2V61h-3v-2.4Z"/></svg>