<svg xmlns="http://www.w3.org/2000/svg" xmlns:xlink="http://www.w3.org/1999/xlink" viewBox="0 0 70 70"><defs><linearGradient id="a" x1="-12.6" x2="42.4" y1="-.6" y2="64.8" gradientUnits="userSpaceOnUse"><stop offset="0" stop-color="#1e2eb8"/><stop offset=".5" stop-color="#5b69ff"/><stop offset="1" stop-color="#e9eaf2"/></linearGradient><linearGradient xlink:href="#a" id="c" x1="-2.6" x2="52.4" y1="-9" y2="56.4"/><linearGradient xlink:href="#a" id="d" x1="9.3" x2="64.3" y1="-19.1" y2="46.4"/><clipPath id="b"><circle cx="35" cy="35" r="27.6" fill="none" stroke-width="0"/></clipPath></defs><circle cx="35" cy="35" r="30" fill="#1f2eb8"/><path fill="none" d="m49.9 41.4-2.4-1.9c-1.8-1.4-3.8-2.6-5.9-3.4-1.8-.7-3.8-.5-5.5.3l-3.6 1.8c-1.5.8-2.2 2.5-1.8 4.1.4 1.3 1.5 2.4 2.8 2.6l2.3.4c3.3.6 5.9 3 6.7 6.2v3.2c0 .8.5 1.5 1.3 1.7.6.1 1.2 0 1.6-.5l5.1-5.1c.3-.3.5-.8.5-1.2v-5.7c0-1-.5-2-1.2-2.6Z"/><g stroke-width="0" clip-path="url(#b)"><path fill="url(#a)" d="m20.6 22.8-.4-.4-1.4-1.8-.4-.5c-.4-.5-.9-.8-1.4-.9l-3.8-.8c-2.9 3.8-4.8 8.4-5.4 13.4-.1 1.1-.2 2.3-.2 3.4 0 2 .2 3.9.6 5.8H10c.8 0 1.6-.4 2.1-1.1l5.8-8.7c.2-.4.6-.6.9-.8l3.3-1.7c.8-.4 1.4-1.3 1.4-2.2s-.3-1.4-.9-1.9l-2-1.7Z"/><path fill="url(#c)" d="M46.5 39.1C44.9 37.8 43 36.7 41 36c-1.6-.6-3.5-.5-5 .3L32.7 38c-1.4.7-2.1 2.3-1.7 3.7.3 1.2 1.3 2.2 2.6 2.4l2.1.4c3 .5 5.4 2.8 6.2 5.7v3c0 .7.5 1.4 1.2 1.5.5.1 1.1 0 1.5-.4l4.7-4.7c.3-.3.5-.7.5-1.1v-5.2c0-.9-.4-1.8-1.1-2.4z"/><path fill="url(#d)" d="M54.4 14.9c-.1.1-.2.3-.3.5l-.8 1.5c-.3.5-.8.9-1.3 1.2L47.4 20c-.3.1-.7.2-1 .2h-3c-.4 0-.8 0-1.2.3l-.5.2-2 1c-.2 0-.4.2-.5.2l-6 1.5c-1.2.3-2 1.4-2 2.6s.4 1.6 1.1 2.1l1.2.9.8.6c.4.3.9.5 1.5.5l5.9.3c.5 0 1 .2 1.4.5l3.5 2.5 5.9 4.6c.9.7 2.2.8 3.2 0l4.7-3.3c.5-.3 1-.5 1.5-.5h1.2c-.2-7.6-3.5-14.4-8.6-19.3Z"/></g></svg>