<svg xmlns="http://www.w3.org/2000/svg" xmlns:xlink="http://www.w3.org/1999/xlink" viewBox="0 0 70 70"><defs><linearGradient id="b" x1="10.1" x2="59.9" y1="45.9" y2="45.9" gradientUnits="userSpaceOnUse"><stop offset="0" stop-color="#5b69ff"/><stop offset="1" stop-color="#e9eaf2"/></linearGradient><linearGradient id="c" x1="28.7" x2="40.9" y1="29.1" y2="29.1" gradientUnits="userSpaceOnUse"><stop offset="0" stop-color="#5b69ff"/><stop offset="1" stop-color="#e9eaf2"/></linearGradient><linearGradient id="a" x1="28.7" x2="40.9" y1="31.9" y2="31.9" gradientUnits="userSpaceOnUse"><stop offset="0" stop-color="#e9eaf2"/><stop offset="1" stop-color="#5b69ff"/></linearGradient><linearGradient xlink:href="#a" id="d" x1="24.5" x2="45.5" y1="64.8" y2="64.8"/></defs><path fill="#1f2eb8" d="M11.3 26.3h47.4c1.9 0 3.4 1.5 3.4 3.4v33.6H7.9V29.8c0-1.9 1.5-3.4 3.4-3.4Z"/><path fill="url(#b)" d="M11.9 28.7h46.3c1 0 1.8.8 1.8 1.8v32.6H10.1V30.4c0-1 .8-1.8 1.8-1.8Z"/><path fill="none" stroke="#1e2eb8" stroke-linecap="round" stroke-linejoin="round" stroke-width="2.5" d="m29.3 52.4-8.1-4.5 8.1-4.4M40.7 52.4l8.1-4.5-8.1-4.4M36.6 41.5l-3.4 13"/><path fill="#1f2eb8" d="M47.6 12.6c0-7-5.8-12.6-12.8-12.6S22.2 5.4 22 12.3c-.1 4.1 1.8 7.8 4.8 10.2 1.5 1.2 2.4 3.1 2.4 5 0 3.1 2.5 5.6 5.7 5.6s5.7-2.5 5.7-5.6c0-2 .9-3.8 2.5-5.1 2.9-2.3 4.7-5.8 4.7-9.8Z"/><path fill="#fff" d="M34.8 37.5c-2.4 0-4.3-1.9-4.3-4.2h8.6c0 2.3-1.9 4.2-4.3 4.2"/><path fill="#5b69ff" d="M34.8 37.7c-2.5 0-4.4-2-4.4-4.4s0-.1.1-.1h8.6s.1 0 .1.1c0 2.4-2 4.4-4.4 4.4"/><rect width="12.2" height="2.9" x="28.7" y="27.7" fill="url(#c)" rx="1.3" ry="1.3"/><rect width="12.2" height="2.9" x="28.7" y="30.4" fill="url(#a)" rx="1.3" ry="1.3"/><path fill="#fff" d="M36.9 27.8h-4.5s-.1 0-.1-.1l-1.7-11.9v-.1h.1l1.1.2.9-.4h.1l.9.4 1-.4h.1l1.1.4 1.1-.4h.1l1 .4.9-.2h.1v.1L37 27.7s0 .1-.1.1m-4.3-.3h4.2l2-11.5-.7.2-1-.4-1.1.4-1.1-.4-1 .4h-.1l-.9-.4-.9.4-.9-.2 1.6 11.6Z"/><path fill="#1f2eb8" d="M1.7 63.1h66.5v3.1c0 2.1-1.7 3.9-3.9 3.9H5.6c-2.1 0-3.9-1.7-3.9-3.9z"/><path fill="url(#d)" d="M24.5 63.1h21.1v1.6c0 1.1-.9 1.9-1.9 1.9H26.4c-1.1 0-1.9-.9-1.9-1.9z"/></svg>