<svg xmlns="http://www.w3.org/2000/svg" xmlns:xlink="http://www.w3.org/1999/xlink" viewBox="0 0 70 70"><defs><linearGradient id="a" x1="52.8" x2="17.8" y1="9.6" y2="63" gradientUnits="userSpaceOnUse"><stop offset="0" stop-color="#e9eaf2"/><stop offset=".5" stop-color="#5b69ff"/><stop offset="1" stop-color="#1e2eb8"/></linearGradient><linearGradient xlink:href="#a" id="c" x1="12" x2="40.3" y1="44.6" y2="44.6"/><linearGradient xlink:href="#a" id="d" x1="12" x2="40.3" y1="51.5" y2="51.5"/><linearGradient xlink:href="#a" id="e" x1="12" x2="40.3" y1="58.3" y2="58.3"/><linearGradient xlink:href="#a" id="f" x1="12" x2="40.3" y1="23.2" y2="23.2"/><linearGradient xlink:href="#a" id="g" x1="12" x2="40.3" y1="30" y2="30"/><linearGradient xlink:href="#a" id="h" x1="12" x2="40.3" y1="36.9" y2="36.9"/><linearGradient id="i" x1="38.8" x2="68.2" y1="51" y2="51" gradientUnits="userSpaceOnUse"><stop offset="0" stop-color="#5b69ff"/><stop offset="1" stop-color="#e9eaf2"/></linearGradient><linearGradient id="b" x1="58.9" x2="50.2" y1="43" y2="55.8" gradientUnits="userSpaceOnUse"><stop offset="0" stop-color="#e9eaf2"/><stop offset="1" stop-color="#5b69ff"/></linearGradient><linearGradient xlink:href="#b" id="j" x1="63.9" x2="55.2" y1="96.4" y2="109.2" gradientTransform="translate(-5 -53.4)"/><linearGradient id="k" x1="14.1" x2="38.2" y1="5.4" y2="5.4" gradientUnits="userSpaceOnUse"><stop offset="0" stop-color="#1e2eb8"/><stop offset=".5" stop-color="#5b69ff"/><stop offset="1" stop-color="#e9eaf2"/></linearGradient></defs><rect width="52.3" height="54" x="8.9" y="9.8" fill="url(#a)" rx="4.9" ry="4.9"/><path fill="#1f2eb8" d="M47.4 70H4.9C2.2 70 0 68 0 65.5V5.4h47.4c2.7 0 4.9 2 4.9 4.5v55.6c0 2.5-2.2 4.5-4.9 4.5"/><rect width="28.3" height="3" x="12" y="43.1" fill="url(#c)" rx="1.5" ry="1.5"/><rect width="28.3" height="3" x="12" y="50" fill="url(#d)" rx="1.5" ry="1.5"/><rect width="28.3" height="3" x="12" y="56.8" fill="url(#e)" rx="1.5" ry="1.5"/><rect width="28.3" height="3" x="12" y="21.7" fill="url(#f)" rx="1.5" ry="1.5"/><rect width="28.3" height="3" x="12" y="28.5" fill="url(#g)" rx="1.5" ry="1.5"/><rect width="28.3" height="3" x="12" y="35.4" fill="url(#h)" rx="1.5" ry="1.5"/><path fill="#1f2eb8" stroke="url(#i)" stroke-miterlimit="10" stroke-width="1.1" d="M53.5 32.9c-4.7 3.1-9.4 4.7-14.2 3.1v17.3c0 6.3 9.4 11 14.2 15.7 4.7-4.7 14.2-9.4 14.2-15.7V36c-4.7 1.6-9.4 0-14.2-3.1Z"/><path fill="url(#b)" d="M50.8 42.8h5.4V59h-5.4z"/><path fill="url(#j)" d="M50.8 42.8h5.4V59h-5.4z" transform="rotate(90 53.55 50.95)"/><path fill="url(#k)" d="M38.2 10.7H14.1V4.2C14.1 1.9 16 0 18.3 0H34c2.3 0 4.2 1.9 4.2 4.3v6.5Z"/></svg>