<svg xmlns="http://www.w3.org/2000/svg" viewBox="0 0 70 70"><defs><linearGradient id="a" x1="23.7" x2="38.8" y1="23.2" y2="23.2" gradientUnits="userSpaceOnUse"><stop offset="0" stop-color="#5b69ff"/><stop offset="1" stop-color="#e9eaf2"/></linearGradient><linearGradient id="b" x1="24.4" x2="46.3" y1="27.3" y2="27.3" gradientUnits="userSpaceOnUse"><stop offset="0" stop-color="#1e2eb8"/><stop offset=".5" stop-color="#5b69ff"/><stop offset="1" stop-color="#e9eaf2"/></linearGradient></defs><path fill="#1f2eb8" d="M57 26.6c0 9.5-13.4 29.3-19.3 37.5-1.3 1.9-4.1 1.9-5.4 0-5.9-8.2-19.3-28-19.3-37.5s9.8-22 22-22 22 9.9 22 22"/><path fill="url(#a)" d="M35 15.6c-6.2 0-11.3 5.1-11.3 11.3s.2 2.6.7 3.8l14.4-14.4c-1.2-.4-2.5-.7-3.8-.7"/><path fill="url(#b)" d="M38.8 16.3 24.4 30.7c.6 1.6 1.5 3 2.6 4.2 2 2 4.9 3.3 8 3.3 6.2 0 11.3-5.1 11.3-11.3S45 21 43 18.9c-1.2-1.2-2.6-2.1-4.2-2.6"/></svg>