<svg xmlns="http://www.w3.org/2000/svg" xmlns:xlink="http://www.w3.org/1999/xlink" viewBox="0 0 80 70"><defs><linearGradient id="b" x1="1.2" x2="78.8" y1="45" y2="45" gradientUnits="userSpaceOnUse"><stop offset="0" stop-color="#5b69ff"/><stop offset="1" stop-color="#e9eaf2"/></linearGradient><linearGradient id="a" x1="1.2" x2="78.8" y1="35" y2="35" gradientUnits="userSpaceOnUse"><stop offset="0" stop-color="#1e2eb8"/><stop offset=".5" stop-color="#5b69ff"/><stop offset="1" stop-color="#e9eaf2"/></linearGradient><linearGradient xlink:href="#a" id="c" x1="76" x2="5.6" y1="25.8" y2="25.8"/></defs><path fill="url(#b)" d="m78.8 48.7-32 14.9L1.2 40s18.6-8.6 27.4-12.8c2.9-1.3 6.2-1.3 9 .2l41.1 21.2Z"/><path fill="url(#a)" d="m78.8 38.8-32 14.9L1.2 30.1s18.6-8.6 27.4-12.8 6.2-1.3 9 .2l41.1 21.2Z"/><path fill="#1f2eb8" d="m43.7 31-3.9 6.4-1.3 2 8.3 4.3 14.1-6.6-16.7-7zM21.3 23.6c-3.4 0-6.7.7-9.6 1.9l21.3 11 4.1-7.2c-4.1-3.5-9.7-5.7-15.8-5.7M69.2 33.3l9.6-4.5-25.7-13.3-5.3 8.7zM39.9 24.3l6.8-12.1-9.1-4.7C34.8 6 31.4 6 28.5 7.3 19.8 11.5 1.2 20.1 1.2 20.1l4.4 2.3c4.5-2.6 9.9-4.1 15.7-4.1s13.6 2.3 18.6 6.1Z"/><path fill="url(#c)" d="m47.8 24.2 5.3-8.7-6.4-3.3-6.8 12.1c-5-3.8-11.5-6.1-18.6-6.1H19c-4.9.4-9.4 1.8-13.3 4l6.1 3.1h.1c2.9-1.2 6.1-1.9 9.5-1.9 6.2 0 11.7 2.2 15.8 5.7l-4.1 7.2 5.5 2.8 1.2-2 3.9-6.4.5-.9 16.7 7 8.2-3.8-21.3-9.1Z"/></svg>