<svg xmlns="http://www.w3.org/2000/svg" xmlns:xlink="http://www.w3.org/1999/xlink" viewBox="0 0 70 70"><defs><linearGradient id="a" x1="6162.5" x2="6261.1" y1="1718.5" y2="1718.5" gradientTransform="translate(-6159.6 -1679.3)" gradientUnits="userSpaceOnUse"><stop offset="0" stop-color="#1e2eb8"/><stop offset=".5" stop-color="#5b69ff"/><stop offset="1" stop-color="#e9eaf2"/></linearGradient><linearGradient xlink:href="#a" id="b" x1="10.5" x2="109.1" y1="35" y2="35"/><linearGradient id="c" x1="17.9" x2="61.3" y1="35.2" y2="35.2" gradientUnits="userSpaceOnUse"><stop offset="0" stop-color="#fff"/><stop offset=".3" stop-color="#fcfcfe"/><stop offset=".5" stop-color="#f4f4fd"/><stop offset=".7" stop-color="#e5e7fb"/><stop offset=".8" stop-color="#d1d5f9"/><stop offset="1" stop-color="#b7bdf5"/><stop offset="1" stop-color="#b0b6f5"/></linearGradient></defs><path fill="url(#a)" d="M8.4 15.1h43.5c4.2 0 7.7 3.4 7.7 7.7v35.1c0 3-2.4 5.4-5.4 5.4H8.4c-3 0-5.4-2.4-5.4-5.4V20.6c0-3 2.4-5.4 5.4-5.4Z" transform="rotate(180 31.2 39.2)"/><path fill="url(#b)" d="M16.4 6.7h44.8c3.3 0 5.9 2.6 5.9 5.9v44.8c0 3.3-2.6 5.9-5.9 5.9H10.5V12.6c0-3.3 2.6-5.9 5.9-5.9"/><path fill="url(#c)" d="M32.3 32.1H19.9c-1.1 0-2-.9-2-2V21c0-1.1.9-2 2-2h12.4c1.1 0 2 .9 2 2v9.1c0 1.1-.9 2-2 2m29-11.4c0-.9-.8-1.7-1.7-1.7H41.4c-.9 0-1.7.8-1.7 1.7s.8 1.7 1.7 1.7h18.2c.9 0 1.7-.8 1.7-1.7m0 9.7c0-.9-.8-1.7-1.7-1.7H41.4c-.9 0-1.7.8-1.7 1.7s.8 1.7 1.7 1.7h18.2c.9 0 1.7-.8 1.7-1.7m0 9.7c0-.9-.8-1.7-1.7-1.7h-40c-.9 0-1.7.8-1.7 1.7s.8 1.7 1.7 1.7h40.1c.9 0 1.7-.8 1.7-1.7Zm0 9.7c0-.9-.8-1.7-1.7-1.7h-40c-.9 0-1.7.8-1.7 1.7s.8 1.7 1.7 1.7h40.1c.9 0 1.7-.8 1.7-1.7Z"/></svg>