<svg xmlns="http://www.w3.org/2000/svg" viewBox="0 0 70 70"><defs><linearGradient id="a" x1="13.5" x2="55.1" y1="37.6" y2="37.6" gradientUnits="userSpaceOnUse"><stop offset="0" stop-color="#1e2eb8"/><stop offset=".5" stop-color="#5b69ff"/><stop offset="1" stop-color="#e9eaf2"/></linearGradient></defs><circle cx="11" cy="31.9" r="4.9" fill="#97a0ff"/><path fill="#97a0ff" d="M2.7 43.9c0-4.6 3.7-8.3 8.3-8.3s8.3 3.7 8.3 8.3z"/><circle cx="57.4" cy="31.9" r="4.9" fill="#97a0ff"/><path fill="#97a0ff" d="M49.1 43.9c0-4.6 3.7-8.3 8.3-8.3s8.3 3.7 8.3 8.3z"/><circle cx="34.3" cy="37.6" r="20.8" fill="url(#a)"/><circle cx="34.3" cy="37.6" r="15.6" fill="#e8e9f1"/><circle cx="34.3" cy="31.5" r="5.4" fill="#1f2eb8"/><path fill="#1f2eb8" d="M25.1 44.8c0-5.1 4.1-9.2 9.2-9.2s9.2 4.1 9.2 9.2zm-7.5 3.9L4 60s-3.1 3.9.3 7.3 7.4 1.1 7.9.7 11.3-14 11.3-14l-5.9-5.4Zm16.3-34.6-7.2-7.6c-.3-.3 0-.9.4-.9h3V1.3c0-.7.6-1.3 1.3-1.3h6c.7 0 1.3.6 1.3 1.3v4.2h2.9c.5 0 .7.6.4.9L34.8 14c-.2.2-.6.2-.8 0Z"/><rect width="2.3" height="3.4" x="47.4" y="9.9" fill="#1f2eb8" rx="1.2" ry="1.2"/><rect width="3.2" height="2.3" x="52.2" y="12.7" fill="#1f2eb8" rx="1.2" ry="1.2" transform="rotate(-45 53.77 13.928)"/><rect width="3.8" height="2.3" x="54.2" y="17.9" fill="#1f2eb8" rx="1.2" ry="1.2"/><rect width="2.3" height="3.4" x="20.5" y="9.9" fill="#1f2eb8" rx="1.2" ry="1.2"/><rect width="2.3" height="3.2" x="15.3" y="12.3" fill="#1f2eb8" rx="1.2" ry="1.2" transform="rotate(-45 16.452 13.886)"/><rect width="3.8" height="2.3" x="12.3" y="17.9" fill="#1f2eb8" rx="1.2" ry="1.2"/></svg>