<svg xmlns="http://www.w3.org/2000/svg" viewBox="0 0 70 70"><defs><linearGradient id="a" x1="16.4" x2="53.6" y1="20.8" y2="20.8" gradientUnits="userSpaceOnUse"><stop offset="0" stop-color="#5b69ff"/><stop offset="1" stop-color="#e9eaf2"/></linearGradient><linearGradient id="b" x1="16.4" x2="53.6" y1="34.6" y2="34.6" gradientUnits="userSpaceOnUse"><stop offset="0" stop-color="#1e2eb8"/><stop offset=".5" stop-color="#5b69ff"/><stop offset="1" stop-color="#e9eaf2"/></linearGradient></defs><path fill="#1f2eb8" d="M59.5 8.6 35 .9 10.5 8.6c-3 1-5 3.8-5 7 0 13.5 4.2 26.4 11.6 37.2 3.9 5.7 8.6 10.7 14.2 15 2.2 1.7 5.3 1.7 7.5 0 5.2-4 9.7-8.7 13.4-13.9 7.9-11 12.4-24.4 12.4-38.4 0-3.1-2-5.9-5-6.8Z"/><path fill="url(#a)" d="M16.4 18.2c.2 3.7.8 7.4 1.7 11L35 12.3l-18.6 5.8Z"/><path fill="url(#b)" d="M35 12.4 18.1 29.3c1.6 6.2 4.3 12 7.9 17.4 2.6 3.7 5.6 7.1 8.9 10.1 3.1-2.7 5.9-5.8 8.3-9.2 6.2-8.7 9.7-18.8 10.3-29.4l-18.6-5.8Z"/></svg>