<svg xmlns="http://www.w3.org/2000/svg" viewBox="0 0 70 70"><defs><linearGradient id="a" x1="-17.5" x2="57.9" y1="-10.8" y2="64.6" gradientUnits="userSpaceOnUse"><stop offset="0" stop-color="#1e2eb8"/><stop offset=".5" stop-color="#5b69ff"/><stop offset="1" stop-color="#e9eaf2"/></linearGradient></defs><rect width="18" height="2.3" x="26" y="67.7" fill="#1f2eb8" rx="1.1" ry="1.1"/><path fill="#1f2eb8" d="M30.3 62.3h9.3v6.2h-9.3z"/><path fill="url(#a)" d="M59.9 22.3H10.1C6.7 22.3 4 25 4 28.4v29h61.9v-29c0-3.4-2.7-6.1-6.1-6.1Z"/><path fill="#fff" d="M12.95 4.249 52.002.832a2.006 2.006 0 0 1 2.167 1.818l4.88 55.787-43.035 3.765-4.88-55.787A2.006 2.006 0 0 1 12.95 4.25"/><path fill="#97a0ff" d="M12.968 4.249 52.018.832a2.006 2.006 0 0 1 2.168 1.818l.296 3.387-43.036 3.766-.296-3.388a2.006 2.006 0 0 1 1.818-2.166"/><rect width="17" height="1.4" x="13.1" y="5.5" fill="#5b69ff" rx=".7" ry=".7" transform="rotate(-5 21.509 6.676)"/><circle cx="43" cy="4.3" r="1" fill="#5b69ff"/><circle cx="46.6" cy="4" r="1" fill="#5b69ff"/><circle cx="50.1" cy="3.7" r="1" fill="#5b69ff"/><rect width="31.8" height="1.4" x="16.5" y="12.8" fill="#1e2eb7" rx=".7" ry=".7" transform="rotate(-5 32.66 14.047)"/><rect width="21.5" height="1.4" x="22.1" y="17" fill="#1e2eb7" rx=".7" ry=".7" transform="rotate(-5 33.656 17.533)"/><path fill="#1e2eb7" d="m16.852 17.552 2.988-.261.262 2.988-2.989.262z"/><rect width="21.5" height="1.4" x="22.5" y="21.3" fill="#1e2eb7" rx=".7" ry=".7" transform="rotate(-5 33.456 22.113)"/><path fill="#1e2eb7" d="m17.234 21.9 2.988-.26.262 2.988-2.989.261z"/><rect width="21.5" height="1.4" x="22.9" y="25.6" fill="#1e2eb7" rx=".7" ry=".7" transform="rotate(-5 34.4 26.744)"/><path fill="#1e2eb7" d="m17.507 26.258 2.989-.261.261 2.988-2.988.262z"/><rect width="31.8" height="1.4" x="18.5" y="34.4" fill="#1e2eb7" rx=".7" ry=".7" transform="rotate(-5 35.146 35.956)"/><rect width="21.5" height="1.4" x="24" y="38.6" fill="#1e2eb7" rx=".7" ry=".7" transform="rotate(-5 34.996 39.391)"/><path fill="#1e2eb7" d="m18.736 39.204 2.988-.261.262 2.988-2.989.262z"/><rect width="21.5" height="1.4" x="24.4" y="42.9" fill="#1e2eb7" rx=".7" ry=".7" transform="rotate(-5 35.941 44.022)"/><path fill="#1e2eb7" d="m19.11 43.553 2.988-.262.261 2.989-2.988.261z"/><rect width="21.5" height="1.4" x="24.8" y="47.3" fill="#1e2eb7" rx=".7" ry=".7" transform="rotate(-5 35.741 48.603)"/><path fill="#1e2eb7" d="m19.483 47.81 2.988-.261.262 2.988-2.989.262z"/><rect width="11" height="2.4" x="44.1" y="52.7" fill="#1e2eb7" rx="1.1" ry="1.1" transform="rotate(-5 50.429 53.833)"/><path fill="#1f2eb8" d="M4 57.4c.2 3.2 2.8 5.7 6.1 5.7h49.8c3.2 0 5.9-2.5 6.1-5.7z"/></svg>