<svg xmlns="http://www.w3.org/2000/svg" viewBox="0 0 80 70"><defs><linearGradient id="a" x1="39.9" x2="39.9" y1="41.9" y2="60" gradientUnits="userSpaceOnUse"><stop offset="0" stop-color="#1e2eb8"/><stop offset="1" stop-color="#5b69ff"/></linearGradient><linearGradient id="b" x1="25.5" x2="52.9" y1="7.7" y2="35.1" gradientUnits="userSpaceOnUse"><stop offset=".2" stop-color="#5b69ff"/><stop offset="1" stop-color="#e9eaf2"/></linearGradient><linearGradient id="c" x1="39.9" x2="39.9" y1="34.5" y2="45.1" gradientUnits="userSpaceOnUse"><stop offset="0" stop-color="#5b69ff"/><stop offset="1" stop-color="#e9eaf2"/></linearGradient><linearGradient id="d" x1="12.1" x2="30.3" y1="11" y2="29.3" gradientUnits="userSpaceOnUse"><stop offset=".2" stop-color="#5b69ff"/><stop offset=".7" stop-color="#e9eaf2"/></linearGradient></defs><path fill="url(#a)" d="M9 43.5v11.6c0 3.9 3.2 7.1 7.1 7.1s7.1-3.2 7.1-7.1V43.5c0-3.9-3.2-7.1-7.1-7.1S9 39.6 9 43.5m54.6-7.2c-3.9 0-7.1 3.2-7.1 7.1V55c0 3.9 3.2 7.1 7.1 7.1s7.1-3.2 7.1-7.1V43.4c0-3.9-3.2-7.1-7.1-7.1"/><path fill="#1f2eb8" d="M18.4 7.8h43.1c5.2 0 9.3 4.2 9.3 9.3v29.3c0 3.2-2.6 5.7-5.7 5.7H14.8c-3.2 0-5.7-2.6-5.7-5.7V17.1c0-5.2 4.2-9.3 9.3-9.3"/><path fill="url(#b)" d="M17.9 10.5h44c3.5 0 6.4 2.9 6.4 6.4V30H11.5V16.9c0-3.5 2.9-6.4 6.4-6.4"/><path fill="url(#c)" d="M15.2 35.4v10.3c0 .5.4.9.9.9s.9-.4.9-.9V35.4c0-.5-.4-.9-.9-.9s-.9.4-.9.9m48.6-.9c-.5 0-.9.4-.9.9v10.3c0 .5.4.9.9.9s.9-.4.9-.9V35.4c0-.5-.4-.9-.9-.9"/><path fill="#1f2eb8" d="M5 22.8h2.3c2 0 3.7 1.6 3.7 3.7v6.6H7.5c-2.3 0-4.1-1.8-4.1-4.1v-4.5c0-.9.7-1.6 1.6-1.6Zm67.5 10.4H69v-6.6c0-2 1.6-3.7 3.7-3.7H75c.9 0 1.6.7 1.6 1.6V29c0 2.3-1.8 4.1-4.1 4.1Z"/><path fill="url(#d)" d="M17.9 10.5c-3.5 0-6.4 2.8-6.4 6.4v12.9l19.4-19.3H18Z"/></svg>